<?xml version="1.0" encoding="UTF-8" standalone="no"?>
<!DOCTYPE svg PUBLIC "-//W3C//DTD SVG 1.1//EN"
 "http://www.w3.org/Graphics/SVG/1.1/DTD/svg11.dtd">
<!-- Generated by graphviz version 6.0.2 (20221011.1828)
 -->
<!-- Title: list Pages: 1 -->
<svg width="1865pt" height="947pt"
 viewBox="0.00 0.00 1865.21 947.00" xmlns="http://www.w3.org/2000/svg" xmlns:xlink="http://www.w3.org/1999/xlink">
<g id="graph0" class="graph" transform="scale(1 1) rotate(0) translate(4 943)">
<title>list</title>
<polygon fill="#eebef1" stroke="none" points="-4,4 -4,-943 1861.21,-943 1861.21,4 -4,4"/>
<!-- 1 -->
<g id="node1" class="node">
<title>1</title>
<path fill="#c9feb9" stroke="black" d="M259.5,-0.5C259.5,-0.5 379.5,-0.5 379.5,-0.5 385.5,-0.5 391.5,-6.5 391.5,-12.5 391.5,-12.5 391.5,-57.5 391.5,-57.5 391.5,-63.5 385.5,-69.5 379.5,-69.5 379.5,-69.5 259.5,-69.5 259.5,-69.5 253.5,-69.5 247.5,-63.5 247.5,-57.5 247.5,-57.5 247.5,-12.5 247.5,-12.5 247.5,-6.5 253.5,-0.5 259.5,-0.5"/>
<text text-anchor="middle" x="271.5" y="-31.3" font-family="Times New Roman,serif" font-size="14.00">№1</text>
<polyline fill="none" stroke="black" points="295.5,-0.5 295.5,-69.5"/>
<text text-anchor="middle" x="329" y="-54.3" font-family="Times New Roman,serif" font-size="14.00">list elem</text>
<polyline fill="none" stroke="black" points="362.5,-46.5 362.5,-69.5"/>
<text text-anchor="middle" x="377" y="-54.3" font-family="Times New Roman,serif" font-size="14.00">0</text>
<polyline fill="none" stroke="black" points="295.5,-46.5 391.5,-46.5"/>
<text text-anchor="middle" x="323.5" y="-31.3" font-family="Times New Roman,serif" font-size="14.00">next</text>
<polyline fill="none" stroke="black" points="351.5,-23.5 351.5,-46.5"/>
<text text-anchor="middle" x="371.5" y="-31.3" font-family="Times New Roman,serif" font-size="14.00">2</text>
<polyline fill="none" stroke="black" points="295.5,-23.5 391.5,-23.5"/>
<text text-anchor="middle" x="324" y="-8.3" font-family="Times New Roman,serif" font-size="14.00">prev</text>
<polyline fill="none" stroke="black" points="352.5,-0.5 352.5,-23.5"/>
<text text-anchor="middle" x="372" y="-8.3" font-family="Times New Roman,serif" font-size="14.00">0</text>
</g>
<!-- 2 -->
<g id="node2" class="node">
<title>2</title>
<path fill="#c9feb9" stroke="black" d="M448,-63.5C448,-63.5 568,-63.5 568,-63.5 574,-63.5 580,-69.5 580,-75.5 580,-75.5 580,-120.5 580,-120.5 580,-126.5 574,-132.5 568,-132.5 568,-132.5 448,-132.5 448,-132.5 442,-132.5 436,-126.5 436,-120.5 436,-120.5 436,-75.5 436,-75.5 436,-69.5 442,-63.5 448,-63.5"/>
<text text-anchor="middle" x="458" y="-94.3" font-family="Times New Roman,serif" font-size="14.00">№2</text>
<polyline fill="none" stroke="black" points="480,-63.5 480,-132.5"/>
<text text-anchor="middle" x="513" y="-117.3" font-family="Times New Roman,serif" font-size="14.00">list elem</text>
<polyline fill="none" stroke="black" points="546,-109.5 546,-132.5"/>
<text text-anchor="middle" x="563" y="-117.3" font-family="Times New Roman,serif" font-size="14.00">10</text>
<polyline fill="none" stroke="black" points="480,-109.5 580,-109.5"/>
<text text-anchor="middle" x="509" y="-94.3" font-family="Times New Roman,serif" font-size="14.00">next</text>
<polyline fill="none" stroke="black" points="538,-86.5 538,-109.5"/>
<text text-anchor="middle" x="559" y="-94.3" font-family="Times New Roman,serif" font-size="14.00">3</text>
<polyline fill="none" stroke="black" points="480,-86.5 580,-86.5"/>
<text text-anchor="middle" x="509.5" y="-71.3" font-family="Times New Roman,serif" font-size="14.00">prev</text>
<polyline fill="none" stroke="black" points="539,-63.5 539,-86.5"/>
<text text-anchor="middle" x="559.5" y="-71.3" font-family="Times New Roman,serif" font-size="14.00">1</text>
</g>
<!-- 1&#45;&gt;2 -->
<g id="edge1" class="edge">
<title>1&#45;&gt;2</title>
<path fill="none" stroke="black" d="M391.54,-59C402.88,-62.83 414.68,-66.82 426.23,-70.72"/>
<polygon fill="black" stroke="black" points="425.25,-74.08 435.85,-73.97 427.5,-67.45 425.25,-74.08"/>
</g>
<!-- 3 -->
<g id="node3" class="node">
<title>3</title>
<path fill="#c9feb9" stroke="black" d="M628,-63.5C628,-63.5 748,-63.5 748,-63.5 754,-63.5 760,-69.5 760,-75.5 760,-75.5 760,-120.5 760,-120.5 760,-126.5 754,-132.5 748,-132.5 748,-132.5 628,-132.5 628,-132.5 622,-132.5 616,-126.5 616,-120.5 616,-120.5 616,-75.5 616,-75.5 616,-69.5 622,-63.5 628,-63.5"/>
<text text-anchor="middle" x="638" y="-94.3" font-family="Times New Roman,serif" font-size="14.00">№3</text>
<polyline fill="none" stroke="black" points="660,-63.5 660,-132.5"/>
<text text-anchor="middle" x="693" y="-117.3" font-family="Times New Roman,serif" font-size="14.00">list elem</text>
<polyline fill="none" stroke="black" points="726,-109.5 726,-132.5"/>
<text text-anchor="middle" x="743" y="-117.3" font-family="Times New Roman,serif" font-size="14.00">20</text>
<polyline fill="none" stroke="black" points="660,-109.5 760,-109.5"/>
<text text-anchor="middle" x="689" y="-94.3" font-family="Times New Roman,serif" font-size="14.00">next</text>
<polyline fill="none" stroke="black" points="718,-86.5 718,-109.5"/>
<text text-anchor="middle" x="739" y="-94.3" font-family="Times New Roman,serif" font-size="14.00">4</text>
<polyline fill="none" stroke="black" points="660,-86.5 760,-86.5"/>
<text text-anchor="middle" x="689.5" y="-71.3" font-family="Times New Roman,serif" font-size="14.00">prev</text>
<polyline fill="none" stroke="black" points="719,-63.5 719,-86.5"/>
<text text-anchor="middle" x="739.5" y="-71.3" font-family="Times New Roman,serif" font-size="14.00">2</text>
</g>
<!-- 2&#45;&gt;3 -->
<g id="edge2" class="edge">
<title>2&#45;&gt;3</title>
<path fill="none" stroke="black" d="M580.12,-98C588.61,-98 597.33,-98 605.94,-98"/>
<polygon fill="black" stroke="black" points="606,-101.5 616,-98 606,-94.5 606,-101.5"/>
</g>
<!-- 4 -->
<g id="node4" class="node">
<title>4</title>
<path fill="#c9feb9" stroke="black" d="M808,-63.5C808,-63.5 928,-63.5 928,-63.5 934,-63.5 940,-69.5 940,-75.5 940,-75.5 940,-120.5 940,-120.5 940,-126.5 934,-132.5 928,-132.5 928,-132.5 808,-132.5 808,-132.5 802,-132.5 796,-126.5 796,-120.5 796,-120.5 796,-75.5 796,-75.5 796,-69.5 802,-63.5 808,-63.5"/>
<text text-anchor="middle" x="818" y="-94.3" font-family="Times New Roman,serif" font-size="14.00">№4</text>
<polyline fill="none" stroke="black" points="840,-63.5 840,-132.5"/>
<text text-anchor="middle" x="873" y="-117.3" font-family="Times New Roman,serif" font-size="14.00">list elem</text>
<polyline fill="none" stroke="black" points="906,-109.5 906,-132.5"/>
<text text-anchor="middle" x="923" y="-117.3" font-family="Times New Roman,serif" font-size="14.00">30</text>
<polyline fill="none" stroke="black" points="840,-109.5 940,-109.5"/>
<text text-anchor="middle" x="869" y="-94.3" font-family="Times New Roman,serif" font-size="14.00">next</text>
<polyline fill="none" stroke="black" points="898,-86.5 898,-109.5"/>
<text text-anchor="middle" x="919" y="-94.3" font-family="Times New Roman,serif" font-size="14.00">5</text>
<polyline fill="none" stroke="black" points="840,-86.5 940,-86.5"/>
<text text-anchor="middle" x="869.5" y="-71.3" font-family="Times New Roman,serif" font-size="14.00">prev</text>
<polyline fill="none" stroke="black" points="899,-63.5 899,-86.5"/>
<text text-anchor="middle" x="919.5" y="-71.3" font-family="Times New Roman,serif" font-size="14.00">3</text>
</g>
<!-- 3&#45;&gt;4 -->
<g id="edge3" class="edge">
<title>3&#45;&gt;4</title>
<path fill="none" stroke="black" d="M760.12,-98C768.61,-98 777.33,-98 785.94,-98"/>
<polygon fill="black" stroke="black" points="786,-101.5 796,-98 786,-94.5 786,-101.5"/>
</g>
<!-- 5 -->
<g id="node5" class="node">
<title>5</title>
<path fill="#c9feb9" stroke="black" d="M988,-63.5C988,-63.5 1108,-63.5 1108,-63.5 1114,-63.5 1120,-69.5 1120,-75.5 1120,-75.5 1120,-120.5 1120,-120.5 1120,-126.5 1114,-132.5 1108,-132.5 1108,-132.5 988,-132.5 988,-132.5 982,-132.5 976,-126.5 976,-120.5 976,-120.5 976,-75.5 976,-75.5 976,-69.5 982,-63.5 988,-63.5"/>
<text text-anchor="middle" x="998" y="-94.3" font-family="Times New Roman,serif" font-size="14.00">№5</text>
<polyline fill="none" stroke="black" points="1020,-63.5 1020,-132.5"/>
<text text-anchor="middle" x="1053" y="-117.3" font-family="Times New Roman,serif" font-size="14.00">list elem</text>
<polyline fill="none" stroke="black" points="1086,-109.5 1086,-132.5"/>
<text text-anchor="middle" x="1103" y="-117.3" font-family="Times New Roman,serif" font-size="14.00">40</text>
<polyline fill="none" stroke="black" points="1020,-109.5 1120,-109.5"/>
<text text-anchor="middle" x="1049" y="-94.3" font-family="Times New Roman,serif" font-size="14.00">next</text>
<polyline fill="none" stroke="black" points="1078,-86.5 1078,-109.5"/>
<text text-anchor="middle" x="1099" y="-94.3" font-family="Times New Roman,serif" font-size="14.00">6</text>
<polyline fill="none" stroke="black" points="1020,-86.5 1120,-86.5"/>
<text text-anchor="middle" x="1049.5" y="-71.3" font-family="Times New Roman,serif" font-size="14.00">prev</text>
<polyline fill="none" stroke="black" points="1079,-63.5 1079,-86.5"/>
<text text-anchor="middle" x="1099.5" y="-71.3" font-family="Times New Roman,serif" font-size="14.00">4</text>
</g>
<!-- 4&#45;&gt;5 -->
<g id="edge4" class="edge">
<title>4&#45;&gt;5</title>
<path fill="none" stroke="black" d="M940.12,-98C948.61,-98 957.33,-98 965.94,-98"/>
<polygon fill="black" stroke="black" points="966,-101.5 976,-98 966,-94.5 966,-101.5"/>
</g>
<!-- 6 -->
<g id="node6" class="node">
<title>6</title>
<path fill="#c9feb9" stroke="black" d="M1168,-63.5C1168,-63.5 1288,-63.5 1288,-63.5 1294,-63.5 1300,-69.5 1300,-75.5 1300,-75.5 1300,-120.5 1300,-120.5 1300,-126.5 1294,-132.5 1288,-132.5 1288,-132.5 1168,-132.5 1168,-132.5 1162,-132.5 1156,-126.5 1156,-120.5 1156,-120.5 1156,-75.5 1156,-75.5 1156,-69.5 1162,-63.5 1168,-63.5"/>
<text text-anchor="middle" x="1178" y="-94.3" font-family="Times New Roman,serif" font-size="14.00">№6</text>
<polyline fill="none" stroke="black" points="1200,-63.5 1200,-132.5"/>
<text text-anchor="middle" x="1233" y="-117.3" font-family="Times New Roman,serif" font-size="14.00">list elem</text>
<polyline fill="none" stroke="black" points="1266,-109.5 1266,-132.5"/>
<text text-anchor="middle" x="1283" y="-117.3" font-family="Times New Roman,serif" font-size="14.00">50</text>
<polyline fill="none" stroke="black" points="1200,-109.5 1300,-109.5"/>
<text text-anchor="middle" x="1229" y="-94.3" font-family="Times New Roman,serif" font-size="14.00">next</text>
<polyline fill="none" stroke="black" points="1258,-86.5 1258,-109.5"/>
<text text-anchor="middle" x="1279" y="-94.3" font-family="Times New Roman,serif" font-size="14.00">7</text>
<polyline fill="none" stroke="black" points="1200,-86.5 1300,-86.5"/>
<text text-anchor="middle" x="1229.5" y="-71.3" font-family="Times New Roman,serif" font-size="14.00">prev</text>
<polyline fill="none" stroke="black" points="1259,-63.5 1259,-86.5"/>
<text text-anchor="middle" x="1279.5" y="-71.3" font-family="Times New Roman,serif" font-size="14.00">5</text>
</g>
<!-- 5&#45;&gt;6 -->
<g id="edge5" class="edge">
<title>5&#45;&gt;6</title>
<path fill="none" stroke="black" d="M1120.12,-98C1128.61,-98 1137.33,-98 1145.94,-98"/>
<polygon fill="black" stroke="black" points="1146,-101.5 1156,-98 1146,-94.5 1146,-101.5"/>
</g>
<!-- 7 -->
<g id="node7" class="node">
<title>7</title>
<path fill="#c9feb9" stroke="black" d="M1348,-63.5C1348,-63.5 1468,-63.5 1468,-63.5 1474,-63.5 1480,-69.5 1480,-75.5 1480,-75.5 1480,-120.5 1480,-120.5 1480,-126.5 1474,-132.5 1468,-132.5 1468,-132.5 1348,-132.5 1348,-132.5 1342,-132.5 1336,-126.5 1336,-120.5 1336,-120.5 1336,-75.5 1336,-75.5 1336,-69.5 1342,-63.5 1348,-63.5"/>
<text text-anchor="middle" x="1358" y="-94.3" font-family="Times New Roman,serif" font-size="14.00">№7</text>
<polyline fill="none" stroke="black" points="1380,-63.5 1380,-132.5"/>
<text text-anchor="middle" x="1413" y="-117.3" font-family="Times New Roman,serif" font-size="14.00">list elem</text>
<polyline fill="none" stroke="black" points="1446,-109.5 1446,-132.5"/>
<text text-anchor="middle" x="1463" y="-117.3" font-family="Times New Roman,serif" font-size="14.00">60</text>
<polyline fill="none" stroke="black" points="1380,-109.5 1480,-109.5"/>
<text text-anchor="middle" x="1409" y="-94.3" font-family="Times New Roman,serif" font-size="14.00">next</text>
<polyline fill="none" stroke="black" points="1438,-86.5 1438,-109.5"/>
<text text-anchor="middle" x="1459" y="-94.3" font-family="Times New Roman,serif" font-size="14.00">8</text>
<polyline fill="none" stroke="black" points="1380,-86.5 1480,-86.5"/>
<text text-anchor="middle" x="1409.5" y="-71.3" font-family="Times New Roman,serif" font-size="14.00">prev</text>
<polyline fill="none" stroke="black" points="1439,-63.5 1439,-86.5"/>
<text text-anchor="middle" x="1459.5" y="-71.3" font-family="Times New Roman,serif" font-size="14.00">6</text>
</g>
<!-- 6&#45;&gt;7 -->
<g id="edge6" class="edge">
<title>6&#45;&gt;7</title>
<path fill="none" stroke="black" d="M1300.12,-98C1308.61,-98 1317.33,-98 1325.94,-98"/>
<polygon fill="black" stroke="black" points="1326,-101.5 1336,-98 1326,-94.5 1326,-101.5"/>
</g>
<!-- 8 -->
<g id="node8" class="node">
<title>8</title>
<path fill="#c9feb9" stroke="black" d="M1528,-63.5C1528,-63.5 1648,-63.5 1648,-63.5 1654,-63.5 1660,-69.5 1660,-75.5 1660,-75.5 1660,-120.5 1660,-120.5 1660,-126.5 1654,-132.5 1648,-132.5 1648,-132.5 1528,-132.5 1528,-132.5 1522,-132.5 1516,-126.5 1516,-120.5 1516,-120.5 1516,-75.5 1516,-75.5 1516,-69.5 1522,-63.5 1528,-63.5"/>
<text text-anchor="middle" x="1538" y="-94.3" font-family="Times New Roman,serif" font-size="14.00">№8</text>
<polyline fill="none" stroke="black" points="1560,-63.5 1560,-132.5"/>
<text text-anchor="middle" x="1593" y="-117.3" font-family="Times New Roman,serif" font-size="14.00">list elem</text>
<polyline fill="none" stroke="black" points="1626,-109.5 1626,-132.5"/>
<text text-anchor="middle" x="1643" y="-117.3" font-family="Times New Roman,serif" font-size="14.00">70</text>
<polyline fill="none" stroke="black" points="1560,-109.5 1660,-109.5"/>
<text text-anchor="middle" x="1589" y="-94.3" font-family="Times New Roman,serif" font-size="14.00">next</text>
<polyline fill="none" stroke="black" points="1618,-86.5 1618,-109.5"/>
<text text-anchor="middle" x="1639" y="-94.3" font-family="Times New Roman,serif" font-size="14.00">9</text>
<polyline fill="none" stroke="black" points="1560,-86.5 1660,-86.5"/>
<text text-anchor="middle" x="1589.5" y="-71.3" font-family="Times New Roman,serif" font-size="14.00">prev</text>
<polyline fill="none" stroke="black" points="1619,-63.5 1619,-86.5"/>
<text text-anchor="middle" x="1639.5" y="-71.3" font-family="Times New Roman,serif" font-size="14.00">7</text>
</g>
<!-- 7&#45;&gt;8 -->
<g id="edge7" class="edge">
<title>7&#45;&gt;8</title>
<path fill="none" stroke="black" d="M1480.12,-98C1488.61,-98 1497.33,-98 1505.94,-98"/>
<polygon fill="black" stroke="black" points="1506,-101.5 1516,-98 1506,-94.5 1506,-101.5"/>
</g>
<!-- 9 -->
<g id="node9" class="node">
<title>9</title>
<path fill="#c9feb9" stroke="black" d="M1708,-63.5C1708,-63.5 1828,-63.5 1828,-63.5 1834,-63.5 1840,-69.5 1840,-75.5 1840,-75.5 1840,-120.5 1840,-120.5 1840,-126.5 1834,-132.5 1828,-132.5 1828,-132.5 1708,-132.5 1708,-132.5 1702,-132.5 1696,-126.5 1696,-120.5 1696,-120.5 1696,-75.5 1696,-75.5 1696,-69.5 1702,-63.5 1708,-63.5"/>
<text text-anchor="middle" x="1718" y="-94.3" font-family="Times New Roman,serif" font-size="14.00">№9</text>
<polyline fill="none" stroke="black" points="1740,-63.5 1740,-132.5"/>
<text text-anchor="middle" x="1773" y="-117.3" font-family="Times New Roman,serif" font-size="14.00">list elem</text>
<polyline fill="none" stroke="black" points="1806,-109.5 1806,-132.5"/>
<text text-anchor="middle" x="1823" y="-117.3" font-family="Times New Roman,serif" font-size="14.00">80</text>
<polyline fill="none" stroke="black" points="1740,-109.5 1840,-109.5"/>
<text text-anchor="middle" x="1769" y="-94.3" font-family="Times New Roman,serif" font-size="14.00">next</text>
<polyline fill="none" stroke="black" points="1798,-86.5 1798,-109.5"/>
<text text-anchor="middle" x="1819" y="-94.3" font-family="Times New Roman,serif" font-size="14.00">1</text>
<polyline fill="none" stroke="black" points="1740,-86.5 1840,-86.5"/>
<text text-anchor="middle" x="1769.5" y="-71.3" font-family="Times New Roman,serif" font-size="14.00">prev</text>
<polyline fill="none" stroke="black" points="1799,-63.5 1799,-86.5"/>
<text text-anchor="middle" x="1819.5" y="-71.3" font-family="Times New Roman,serif" font-size="14.00">8</text>
</g>
<!-- 8&#45;&gt;9 -->
<g id="edge8" class="edge">
<title>8&#45;&gt;9</title>
<path fill="none" stroke="black" d="M1660.12,-98C1668.61,-98 1677.33,-98 1685.94,-98"/>
<polygon fill="black" stroke="black" points="1686,-101.5 1696,-98 1686,-94.5 1686,-101.5"/>
</g>
<!-- 9&#45;&gt;1 -->
<g id="edge10" class="edge">
<title>9:f&#45;1&#45;&gt;1</title>
<path fill="none" stroke="black" d="M1841,-98C1872.17,-98 1872.85,-246.76 1696,-133 1663.55,-112.13 1691.64,-76.08 1660,-54 1568.26,10.03 1520.87,-35 1409,-35 687,-35 687,-35 687,-35 589.01,-35 476.28,-35 402.01,-35"/>
<polygon fill="black" stroke="black" points="401.79,-31.5 391.79,-35 401.79,-38.5 401.79,-31.5"/>
</g>
<!-- 9&#45;&gt;8 -->
<g id="edge11" class="edge">
<title>9:f&#45;1&#45;&gt;8</title>
<path fill="none" stroke="#cc0605" d="M1841,-98C1856.56,-98 1851.16,-122.15 1840,-133 1794.1,-177.6 1759.2,-143.07 1696,-133 1687.45,-131.64 1678.65,-129.7 1669.94,-127.42"/>
<polygon fill="#cc0605" stroke="#cc0605" points="1670.75,-124.01 1660.18,-124.72 1668.88,-130.76 1670.75,-124.01"/>
</g>
<!-- 10 -->
<g id="node10" class="node">
<title>10</title>
<path fill="#a1a1a1" stroke="black" d="M251,-88.5C251,-88.5 388,-88.5 388,-88.5 394,-88.5 400,-94.5 400,-100.5 400,-100.5 400,-145.5 400,-145.5 400,-151.5 394,-157.5 388,-157.5 388,-157.5 251,-157.5 251,-157.5 245,-157.5 239,-151.5 239,-145.5 239,-145.5 239,-100.5 239,-100.5 239,-94.5 245,-88.5 251,-88.5"/>
<text text-anchor="middle" x="261" y="-119.3" font-family="Times New Roman,serif" font-size="14.00">№10</text>
<polyline fill="none" stroke="black" points="283,-88.5 283,-157.5"/>
<text text-anchor="middle" x="314" y="-142.3" font-family="Times New Roman,serif" font-size="14.00">list elem</text>
<polyline fill="none" stroke="black" points="345,-134.5 345,-157.5"/>
<text text-anchor="middle" x="372.5" y="-142.3" font-family="Times New Roman,serif" font-size="14.00">&#45;57818</text>
<polyline fill="none" stroke="black" points="283,-134.5 400,-134.5"/>
<text text-anchor="middle" x="314.5" y="-119.3" font-family="Times New Roman,serif" font-size="14.00">next</text>
<polyline fill="none" stroke="black" points="346,-111.5 346,-134.5"/>
<text text-anchor="middle" x="373" y="-119.3" font-family="Times New Roman,serif" font-size="14.00">11</text>
<polyline fill="none" stroke="black" points="283,-111.5 400,-111.5"/>
<text text-anchor="middle" x="315.5" y="-96.3" font-family="Times New Roman,serif" font-size="14.00">prev</text>
<polyline fill="none" stroke="black" points="348,-88.5 348,-111.5"/>
<text text-anchor="middle" x="374" y="-96.3" font-family="Times New Roman,serif" font-size="14.00">&#45;1</text>
</g>
<!-- 11 -->
<g id="node11" class="node">
<title>11</title>
<path fill="#a1a1a1" stroke="black" d="M33,-165.5C33,-165.5 170,-165.5 170,-165.5 176,-165.5 182,-171.5 182,-177.5 182,-177.5 182,-222.5 182,-222.5 182,-228.5 176,-234.5 170,-234.5 170,-234.5 33,-234.5 33,-234.5 27,-234.5 21,-228.5 21,-222.5 21,-222.5 21,-177.5 21,-177.5 21,-171.5 27,-165.5 33,-165.5"/>
<text text-anchor="middle" x="43" y="-196.3" font-family="Times New Roman,serif" font-size="14.00">№11</text>
<polyline fill="none" stroke="black" points="65,-165.5 65,-234.5"/>
<text text-anchor="middle" x="96" y="-219.3" font-family="Times New Roman,serif" font-size="14.00">list elem</text>
<polyline fill="none" stroke="black" points="127,-211.5 127,-234.5"/>
<text text-anchor="middle" x="154.5" y="-219.3" font-family="Times New Roman,serif" font-size="14.00">&#45;57818</text>
<polyline fill="none" stroke="black" points="65,-211.5 182,-211.5"/>
<text text-anchor="middle" x="96.5" y="-196.3" font-family="Times New Roman,serif" font-size="14.00">next</text>
<polyline fill="none" stroke="black" points="128,-188.5 128,-211.5"/>
<text text-anchor="middle" x="155" y="-196.3" font-family="Times New Roman,serif" font-size="14.00">12</text>
<polyline fill="none" stroke="black" points="65,-188.5 182,-188.5"/>
<text text-anchor="middle" x="97.5" y="-173.3" font-family="Times New Roman,serif" font-size="14.00">prev</text>
<polyline fill="none" stroke="black" points="130,-165.5 130,-188.5"/>
<text text-anchor="middle" x="156" y="-173.3" font-family="Times New Roman,serif" font-size="14.00">&#45;1</text>
</g>
<!-- 12 -->
<g id="node12" class="node">
<title>12</title>
<path fill="#a1a1a1" stroke="black" d="M33,-253.5C33,-253.5 170,-253.5 170,-253.5 176,-253.5 182,-259.5 182,-265.5 182,-265.5 182,-310.5 182,-310.5 182,-316.5 176,-322.5 170,-322.5 170,-322.5 33,-322.5 33,-322.5 27,-322.5 21,-316.5 21,-310.5 21,-310.5 21,-265.5 21,-265.5 21,-259.5 27,-253.5 33,-253.5"/>
<text text-anchor="middle" x="43" y="-284.3" font-family="Times New Roman,serif" font-size="14.00">№12</text>
<polyline fill="none" stroke="black" points="65,-253.5 65,-322.5"/>
<text text-anchor="middle" x="96" y="-307.3" font-family="Times New Roman,serif" font-size="14.00">list elem</text>
<polyline fill="none" stroke="black" points="127,-299.5 127,-322.5"/>
<text text-anchor="middle" x="154.5" y="-307.3" font-family="Times New Roman,serif" font-size="14.00">&#45;57818</text>
<polyline fill="none" stroke="black" points="65,-299.5 182,-299.5"/>
<text text-anchor="middle" x="96.5" y="-284.3" font-family="Times New Roman,serif" font-size="14.00">next</text>
<polyline fill="none" stroke="black" points="128,-276.5 128,-299.5"/>
<text text-anchor="middle" x="155" y="-284.3" font-family="Times New Roman,serif" font-size="14.00">13</text>
<polyline fill="none" stroke="black" points="65,-276.5 182,-276.5"/>
<text text-anchor="middle" x="97.5" y="-261.3" font-family="Times New Roman,serif" font-size="14.00">prev</text>
<polyline fill="none" stroke="black" points="130,-253.5 130,-276.5"/>
<text text-anchor="middle" x="156" y="-261.3" font-family="Times New Roman,serif" font-size="14.00">&#45;1</text>
</g>
<!-- 13 -->
<g id="node13" class="node">
<title>13</title>
<path fill="#a1a1a1" stroke="black" d="M33,-341.5C33,-341.5 170,-341.5 170,-341.5 176,-341.5 182,-347.5 182,-353.5 182,-353.5 182,-398.5 182,-398.5 182,-404.5 176,-410.5 170,-410.5 170,-410.5 33,-410.5 33,-410.5 27,-410.5 21,-404.5 21,-398.5 21,-398.5 21,-353.5 21,-353.5 21,-347.5 27,-341.5 33,-341.5"/>
<text text-anchor="middle" x="43" y="-372.3" font-family="Times New Roman,serif" font-size="14.00">№13</text>
<polyline fill="none" stroke="black" points="65,-341.5 65,-410.5"/>
<text text-anchor="middle" x="96" y="-395.3" font-family="Times New Roman,serif" font-size="14.00">list elem</text>
<polyline fill="none" stroke="black" points="127,-387.5 127,-410.5"/>
<text text-anchor="middle" x="154.5" y="-395.3" font-family="Times New Roman,serif" font-size="14.00">&#45;57818</text>
<polyline fill="none" stroke="black" points="65,-387.5 182,-387.5"/>
<text text-anchor="middle" x="96.5" y="-372.3" font-family="Times New Roman,serif" font-size="14.00">next</text>
<polyline fill="none" stroke="black" points="128,-364.5 128,-387.5"/>
<text text-anchor="middle" x="155" y="-372.3" font-family="Times New Roman,serif" font-size="14.00">14</text>
<polyline fill="none" stroke="black" points="65,-364.5 182,-364.5"/>
<text text-anchor="middle" x="97.5" y="-349.3" font-family="Times New Roman,serif" font-size="14.00">prev</text>
<polyline fill="none" stroke="black" points="130,-341.5 130,-364.5"/>
<text text-anchor="middle" x="156" y="-349.3" font-family="Times New Roman,serif" font-size="14.00">&#45;1</text>
</g>
<!-- 14 -->
<g id="node14" class="node">
<title>14</title>
<path fill="#a1a1a1" stroke="black" d="M33,-429.5C33,-429.5 170,-429.5 170,-429.5 176,-429.5 182,-435.5 182,-441.5 182,-441.5 182,-486.5 182,-486.5 182,-492.5 176,-498.5 170,-498.5 170,-498.5 33,-498.5 33,-498.5 27,-498.5 21,-492.5 21,-486.5 21,-486.5 21,-441.5 21,-441.5 21,-435.5 27,-429.5 33,-429.5"/>
<text text-anchor="middle" x="43" y="-460.3" font-family="Times New Roman,serif" font-size="14.00">№14</text>
<polyline fill="none" stroke="black" points="65,-429.5 65,-498.5"/>
<text text-anchor="middle" x="96" y="-483.3" font-family="Times New Roman,serif" font-size="14.00">list elem</text>
<polyline fill="none" stroke="black" points="127,-475.5 127,-498.5"/>
<text text-anchor="middle" x="154.5" y="-483.3" font-family="Times New Roman,serif" font-size="14.00">&#45;57818</text>
<polyline fill="none" stroke="black" points="65,-475.5 182,-475.5"/>
<text text-anchor="middle" x="96.5" y="-460.3" font-family="Times New Roman,serif" font-size="14.00">next</text>
<polyline fill="none" stroke="black" points="128,-452.5 128,-475.5"/>
<text text-anchor="middle" x="155" y="-460.3" font-family="Times New Roman,serif" font-size="14.00">15</text>
<polyline fill="none" stroke="black" points="65,-452.5 182,-452.5"/>
<text text-anchor="middle" x="97.5" y="-437.3" font-family="Times New Roman,serif" font-size="14.00">prev</text>
<polyline fill="none" stroke="black" points="130,-429.5 130,-452.5"/>
<text text-anchor="middle" x="156" y="-437.3" font-family="Times New Roman,serif" font-size="14.00">&#45;1</text>
</g>
<!-- 15 -->
<g id="node15" class="node">
<title>15</title>
<path fill="#a1a1a1" stroke="black" d="M33,-517.5C33,-517.5 170,-517.5 170,-517.5 176,-517.5 182,-523.5 182,-529.5 182,-529.5 182,-574.5 182,-574.5 182,-580.5 176,-586.5 170,-586.5 170,-586.5 33,-586.5 33,-586.5 27,-586.5 21,-580.5 21,-574.5 21,-574.5 21,-529.5 21,-529.5 21,-523.5 27,-517.5 33,-517.5"/>
<text text-anchor="middle" x="43" y="-548.3" font-family="Times New Roman,serif" font-size="14.00">№15</text>
<polyline fill="none" stroke="black" points="65,-517.5 65,-586.5"/>
<text text-anchor="middle" x="96" y="-571.3" font-family="Times New Roman,serif" font-size="14.00">list elem</text>
<polyline fill="none" stroke="black" points="127,-563.5 127,-586.5"/>
<text text-anchor="middle" x="154.5" y="-571.3" font-family="Times New Roman,serif" font-size="14.00">&#45;57818</text>
<polyline fill="none" stroke="black" points="65,-563.5 182,-563.5"/>
<text text-anchor="middle" x="96.5" y="-548.3" font-family="Times New Roman,serif" font-size="14.00">next</text>
<polyline fill="none" stroke="black" points="128,-540.5 128,-563.5"/>
<text text-anchor="middle" x="155" y="-548.3" font-family="Times New Roman,serif" font-size="14.00">16</text>
<polyline fill="none" stroke="black" points="65,-540.5 182,-540.5"/>
<text text-anchor="middle" x="97.5" y="-525.3" font-family="Times New Roman,serif" font-size="14.00">prev</text>
<polyline fill="none" stroke="black" points="130,-517.5 130,-540.5"/>
<text text-anchor="middle" x="156" y="-525.3" font-family="Times New Roman,serif" font-size="14.00">&#45;1</text>
</g>
<!-- 16 -->
<g id="node16" class="node">
<title>16</title>
<path fill="#a1a1a1" stroke="black" d="M33,-605.5C33,-605.5 170,-605.5 170,-605.5 176,-605.5 182,-611.5 182,-617.5 182,-617.5 182,-662.5 182,-662.5 182,-668.5 176,-674.5 170,-674.5 170,-674.5 33,-674.5 33,-674.5 27,-674.5 21,-668.5 21,-662.5 21,-662.5 21,-617.5 21,-617.5 21,-611.5 27,-605.5 33,-605.5"/>
<text text-anchor="middle" x="43" y="-636.3" font-family="Times New Roman,serif" font-size="14.00">№16</text>
<polyline fill="none" stroke="black" points="65,-605.5 65,-674.5"/>
<text text-anchor="middle" x="96" y="-659.3" font-family="Times New Roman,serif" font-size="14.00">list elem</text>
<polyline fill="none" stroke="black" points="127,-651.5 127,-674.5"/>
<text text-anchor="middle" x="154.5" y="-659.3" font-family="Times New Roman,serif" font-size="14.00">&#45;57818</text>
<polyline fill="none" stroke="black" points="65,-651.5 182,-651.5"/>
<text text-anchor="middle" x="96.5" y="-636.3" font-family="Times New Roman,serif" font-size="14.00">next</text>
<polyline fill="none" stroke="black" points="128,-628.5 128,-651.5"/>
<text text-anchor="middle" x="155" y="-636.3" font-family="Times New Roman,serif" font-size="14.00">17</text>
<polyline fill="none" stroke="black" points="65,-628.5 182,-628.5"/>
<text text-anchor="middle" x="97.5" y="-613.3" font-family="Times New Roman,serif" font-size="14.00">prev</text>
<polyline fill="none" stroke="black" points="130,-605.5 130,-628.5"/>
<text text-anchor="middle" x="156" y="-613.3" font-family="Times New Roman,serif" font-size="14.00">&#45;1</text>
</g>
<!-- 17 -->
<g id="node17" class="node">
<title>17</title>
<path fill="#a1a1a1" stroke="black" d="M33,-693.5C33,-693.5 170,-693.5 170,-693.5 176,-693.5 182,-699.5 182,-705.5 182,-705.5 182,-750.5 182,-750.5 182,-756.5 176,-762.5 170,-762.5 170,-762.5 33,-762.5 33,-762.5 27,-762.5 21,-756.5 21,-750.5 21,-750.5 21,-705.5 21,-705.5 21,-699.5 27,-693.5 33,-693.5"/>
<text text-anchor="middle" x="43" y="-724.3" font-family="Times New Roman,serif" font-size="14.00">№17</text>
<polyline fill="none" stroke="black" points="65,-693.5 65,-762.5"/>
<text text-anchor="middle" x="96" y="-747.3" font-family="Times New Roman,serif" font-size="14.00">list elem</text>
<polyline fill="none" stroke="black" points="127,-739.5 127,-762.5"/>
<text text-anchor="middle" x="154.5" y="-747.3" font-family="Times New Roman,serif" font-size="14.00">&#45;57818</text>
<polyline fill="none" stroke="black" points="65,-739.5 182,-739.5"/>
<text text-anchor="middle" x="96.5" y="-724.3" font-family="Times New Roman,serif" font-size="14.00">next</text>
<polyline fill="none" stroke="black" points="128,-716.5 128,-739.5"/>
<text text-anchor="middle" x="155" y="-724.3" font-family="Times New Roman,serif" font-size="14.00">18</text>
<polyline fill="none" stroke="black" points="65,-716.5 182,-716.5"/>
<text text-anchor="middle" x="97.5" y="-701.3" font-family="Times New Roman,serif" font-size="14.00">prev</text>
<polyline fill="none" stroke="black" points="130,-693.5 130,-716.5"/>
<text text-anchor="middle" x="156" y="-701.3" font-family="Times New Roman,serif" font-size="14.00">&#45;1</text>
</g>
<!-- 18 -->
<g id="node18" class="node">
<title>18</title>
<path fill="#a1a1a1" stroke="black" d="M33,-781.5C33,-781.5 170,-781.5 170,-781.5 176,-781.5 182,-787.5 182,-793.5 182,-793.5 182,-838.5 182,-838.5 182,-844.5 176,-850.5 170,-850.5 170,-850.5 33,-850.5 33,-850.5 27,-850.5 21,-844.5 21,-838.5 21,-838.5 21,-793.5 21,-793.5 21,-787.5 27,-781.5 33,-781.5"/>
<text text-anchor="middle" x="43" y="-812.3" font-family="Times New Roman,serif" font-size="14.00">№18</text>
<polyline fill="none" stroke="black" points="65,-781.5 65,-850.5"/>
<text text-anchor="middle" x="96" y="-835.3" font-family="Times New Roman,serif" font-size="14.00">list elem</text>
<polyline fill="none" stroke="black" points="127,-827.5 127,-850.5"/>
<text text-anchor="middle" x="154.5" y="-835.3" font-family="Times New Roman,serif" font-size="14.00">&#45;57818</text>
<polyline fill="none" stroke="black" points="65,-827.5 182,-827.5"/>
<text text-anchor="middle" x="96.5" y="-812.3" font-family="Times New Roman,serif" font-size="14.00">next</text>
<polyline fill="none" stroke="black" points="128,-804.5 128,-827.5"/>
<text text-anchor="middle" x="155" y="-812.3" font-family="Times New Roman,serif" font-size="14.00">19</text>
<polyline fill="none" stroke="black" points="65,-804.5 182,-804.5"/>
<text text-anchor="middle" x="97.5" y="-789.3" font-family="Times New Roman,serif" font-size="14.00">prev</text>
<polyline fill="none" stroke="black" points="130,-781.5 130,-804.5"/>
<text text-anchor="middle" x="156" y="-789.3" font-family="Times New Roman,serif" font-size="14.00">&#45;1</text>
</g>
<!-- 19 -->
<g id="node19" class="node">
<title>19</title>
<path fill="#a1a1a1" stroke="black" d="M33,-869.5C33,-869.5 170,-869.5 170,-869.5 176,-869.5 182,-875.5 182,-881.5 182,-881.5 182,-926.5 182,-926.5 182,-932.5 176,-938.5 170,-938.5 170,-938.5 33,-938.5 33,-938.5 27,-938.5 21,-932.5 21,-926.5 21,-926.5 21,-881.5 21,-881.5 21,-875.5 27,-869.5 33,-869.5"/>
<text text-anchor="middle" x="43" y="-900.3" font-family="Times New Roman,serif" font-size="14.00">№19</text>
<polyline fill="none" stroke="black" points="65,-869.5 65,-938.5"/>
<text text-anchor="middle" x="96" y="-923.3" font-family="Times New Roman,serif" font-size="14.00">list elem</text>
<polyline fill="none" stroke="black" points="127,-915.5 127,-938.5"/>
<text text-anchor="middle" x="154.5" y="-923.3" font-family="Times New Roman,serif" font-size="14.00">&#45;57818</text>
<polyline fill="none" stroke="black" points="65,-915.5 182,-915.5"/>
<text text-anchor="middle" x="96.5" y="-900.3" font-family="Times New Roman,serif" font-size="14.00">next</text>
<polyline fill="none" stroke="black" points="128,-892.5 128,-915.5"/>
<text text-anchor="middle" x="155" y="-900.3" font-family="Times New Roman,serif" font-size="14.00">20</text>
<polyline fill="none" stroke="black" points="65,-892.5 182,-892.5"/>
<text text-anchor="middle" x="97.5" y="-877.3" font-family="Times New Roman,serif" font-size="14.00">prev</text>
<polyline fill="none" stroke="black" points="130,-869.5 130,-892.5"/>
<text text-anchor="middle" x="156" y="-877.3" font-family="Times New Roman,serif" font-size="14.00">&#45;1</text>
</g>
<!-- FREE -->
<g id="node20" class="node">
<title>FREE</title>
<polygon fill="#6495ed" stroke="black" points="11.5,-100 11.5,-146 191.5,-146 191.5,-100 11.5,-100"/>
<text text-anchor="middle" x="37" y="-119.3" font-family="Times New Roman,serif" font-size="14.00">FREE</text>
<polyline fill="none" stroke="black" points="62.5,-100 62.5,-146"/>
<text text-anchor="middle" x="93.5" y="-130.8" font-family="Times New Roman,serif" font-size="14.00">list elem</text>
<polyline fill="none" stroke="black" points="124.5,-123 124.5,-146"/>
<text text-anchor="middle" x="158" y="-130.8" font-family="Times New Roman,serif" font-size="14.00">free elem</text>
<polyline fill="none" stroke="black" points="62.5,-123 191.5,-123"/>
<text text-anchor="middle" x="105" y="-107.8" font-family="Times New Roman,serif" font-size="14.00">free_elem</text>
<polyline fill="none" stroke="black" points="147.5,-100 147.5,-123"/>
<text text-anchor="middle" x="169.5" y="-107.8" font-family="Times New Roman,serif" font-size="14.00">10</text>
</g>
<!-- FREE&#45;&gt;10 -->
<g id="edge9" class="edge">
<title>FREE&#45;&gt;10</title>
<path fill="none" stroke="black" d="M191.6,-123C203.86,-123 216.45,-123 228.72,-123"/>
<polygon fill="black" stroke="black" points="228.93,-126.5 238.93,-123 228.93,-119.5 228.93,-126.5"/>
</g>
<!-- INDICATORS -->
<g id="node21" class="node">
<title>INDICATORS</title>
<polygon fill="#6495ed" stroke="black" points="0,-0.5 0,-69.5 203,-69.5 203,-0.5 0,-0.5"/>
<text text-anchor="middle" x="51" y="-31.3" font-family="Times New Roman,serif" font-size="14.00">INDICATORS</text>
<polyline fill="none" stroke="black" points="102,-0.5 102,-69.5"/>
<text text-anchor="middle" x="133" y="-54.3" font-family="Times New Roman,serif" font-size="14.00">list elem</text>
<polyline fill="none" stroke="black" points="164,-46.5 164,-69.5"/>
<text text-anchor="middle" x="183.5" y="-54.3" font-family="Times New Roman,serif" font-size="14.00">elda</text>
<polyline fill="none" stroke="black" points="102,-46.5 203,-46.5"/>
<text text-anchor="middle" x="131.5" y="-31.3" font-family="Times New Roman,serif" font-size="14.00">next</text>
<polyline fill="none" stroke="black" points="161,-23.5 161,-46.5"/>
<text text-anchor="middle" x="182" y="-31.3" font-family="Times New Roman,serif" font-size="14.00">1</text>
<polyline fill="none" stroke="black" points="102,-23.5 203,-23.5"/>
<text text-anchor="middle" x="130" y="-8.3" font-family="Times New Roman,serif" font-size="14.00">prev</text>
<polyline fill="none" stroke="black" points="158,-0.5 158,-23.5"/>
<text text-anchor="middle" x="180.5" y="-8.3" font-family="Times New Roman,serif" font-size="14.00">19</text>
</g>
<!-- INDICATORS&#45;&gt;1 -->
<g id="edge12" class="edge">
<title>INDICATORS:f&#45;1&#45;&gt;1</title>
<path fill="none" stroke="black" d="M203,-35C214.09,-35 225.78,-35 237.29,-35"/>
<polygon fill="black" stroke="black" points="237.34,-38.5 247.34,-35 237.34,-31.5 237.34,-38.5"/>
</g>
</g>
</svg>
